<svg xmlns="http://www.w3.org/2000/svg" viewBox="0 0 24 24" fill="none">
  <circle cx="12" cy="12" r="3.5" stroke="currentColor" stroke-width="1.6" />
  <path
    d="M19.4 15.5l1.6 1-1.6 2.8-1.8-.7a7.9 7.9 0 0 1-1.9 1.1l-.3 1.9h-3.2l-.3-1.9a7.9 7.9 0 0 1-1.9-1.1l-1.8.7-1.6-2.8 1.6-1a7.5 7.5 0 0 1 0-2.2l-1.6-1 1.6-2.8 1.8.7a7.9 7.9 0 0 1 1.9-1.1l.3-1.9h3.2l.3 1.9a7.9 7.9 0 0 1 1.9 1.1l1.8-.7 1.6 2.8-1.6 1a7.5 7.5 0 0 1 0 2.2Z"
    stroke="currentColor"
    stroke-width="1.6"
    stroke-linecap="round"
    stroke-linejoin="round"
  />
</svg>
